<svg xmlns="http://www.w3.org/2000/svg" width="9" height="17" viewBox="0 0 9 17"><g><g><path fill="#1773fe" d="M8.61.004L6.464 0c-2.41 0-3.969 1.642-3.969 4.184v1.929H.337A.342.342 0 0 0 0 6.46v2.794c0 .192.151.347.337.347h2.158v7.052c0 .192.151.347.338.347h2.815a.342.342 0 0 0 .337-.347V9.601h2.523a.342.342 0 0 0 .338-.347V6.46a.352.352 0 0 0-.098-.246.333.333 0 0 0-.239-.101H5.985V4.477c0-.785.183-1.184 1.18-1.184l1.445-.001a.342.342 0 0 0 .337-.347V.35A.342.342 0 0 0 8.61.004z"/></g></g></svg>