<svg xmlns="http://www.w3.org/2000/svg" width="65" height="52" viewBox="0 0 65 52"><g><g><g><path fill="#5b73af" d="M0 0h65v46H0z"/></g><g><path fill="#5b73af" d="M0 0h65v46H0z"/></g><g><path fill="#4a619a" d="M0 0h65v46z"/></g><g><g><path fill="#0c2452" d="M11.5 11h9a1 1 0 1 0 0-2h-9a1 1 0 1 0 0 2z"/></g><g><path fill="#0c2452" d="M11.5 19h5a1 1 0 1 0 0-2h-5a1 1 0 1 0 0 2z"/></g><g><path fill="#0c2452" d="M33.5 17h-7a1 1 0 1 0 0 2h7a1 1 0 1 0 0-2z"/></g><g><path fill="#0c2452" d="M20.79 17.296a.965.965 0 0 0-.29.7c0 .26.1.52.29.71.189.18.45.29.71.29a1.01 1.01 0 0 0 1-1c0-.26-.11-.52-.29-.71-.38-.37-1.05-.37-1.42.01z"/></g><g><path fill="#0c2452" d="M39.21 17.288c-.38-.37-1.04-.37-1.42 0-.181.189-.29.449-.29.71 0 .26.109.52.29.71.189.18.45.29.71.29.26 0 .52-.11.71-.29.18-.19.29-.45.29-.71 0-.261-.11-.521-.29-.71z"/></g><g><path fill="#0c2452" d="M23.5 25h-7a1 1 0 1 0 0 2h7a1 1 0 1 0 0-2z"/></g><g><path fill="#0c2452" d="M10.79 25.288a.986.986 0 0 0-.29.71c0 .26.109.52.29.71.189.18.45.29.71.29.26 0 .52-.11.71-.29a1.011 1.011 0 0 0 0-1.42c-.38-.37-1.04-.37-1.42 0z"/></g><g><path fill="#0c2452" d="M14.646 34.163c-2.19 1.14-2.928 3.32-3.196 5.582-.414-.347-.828-.693-1.24-1.04-.982-.822-2.405.585-1.415 1.415l2.806 2.35c.662.556 1.676.212 1.707-.706.073-2.167.177-4.743 2.348-5.873 1.144-.596.132-2.322-1.01-1.728z"/></g><g><path fill="#0c2452" d="M23.984 39.25c-.52-.93-1.642-1.391-2.688-1.095-1.365.386-2.98 2.042-3.936.106-.57-1.157-2.295-.143-1.727 1.009.514 1.042 1.5 1.798 2.67 1.932.606.069 1.116-.013 1.687-.226.406-.152 1.923-1.332 2.267-.717.63 1.126 2.357.117 1.727-1.01z"/></g><g><path fill="#04d3f0" d="M52.545 27.09a1.64 1.64 0 0 0 2.25.93c1.392-.661 2.846.792 2.184 2.186a1.64 1.64 0 0 0 .932 2.249c1.453.517 1.453 2.573 0 3.09a1.64 1.64 0 0 0-.932 2.249c.663 1.393-.79 2.847-2.184 2.185a1.64 1.64 0 0 0-2.25.93c-.517 1.455-2.573 1.455-3.09 0a1.64 1.64 0 0 0-2.248-.93c-1.394.662-2.848-.791-2.186-2.185a1.64 1.64 0 0 0-.93-2.25c-1.455-.516-1.455-2.572 0-3.09a1.64 1.64 0 0 0 .93-2.248c-.662-1.393.791-2.847 2.185-2.185a1.64 1.64 0 0 0 2.25-.931c.516-1.453 2.572-1.453 3.09 0z"/></g><g><path fill="#04d3f0" d="M54.794 40.98a1.64 1.64 0 0 0-2.249.93c-.517 1.455-2.573 1.455-3.09 0a1.639 1.639 0 0 0-2.249-.93c-.069.033-.137.038-.206.06V52l4-4 4 4V41.04c-.069-.022-.137-.028-.206-.06z"/></g></g><g><path fill="#0c2452" d="M51 39a4.5 4.5 0 1 0 0-9 4.5 4.5 0 0 0 0 9z"/></g></g></g></svg>