<svg xmlns="http://www.w3.org/2000/svg" width="59" height="53" viewBox="0 0 59 53"><g><g><g><g><path fill="#6591fa" d="M46 38.5H26c-6.627 0-12-5.373-12-12s5.373-12 12-12h20V.5H26C11.641.5 0 12.141 0 26.5s11.641 26 26 26h20z"/></g><g><path fill="#24dbf0" d="M53 4.5h1a1 1 0 1 0 0-2h-1a1 1 0 1 0 0 2z"/></g><g><path fill="#24dbf0" d="M49 4.5h1a1 1 0 1 0 0-2h-1a1 1 0 1 0 0 2z"/></g><g><path fill="#24dbf0" d="M57 4.5h1a1 1 0 1 0 0-2h-1a1 1 0 1 0 0 2z"/></g><g><path fill="#24dbf0" d="M54 10.5h-1a1 1 0 1 0 0 2h1a1 1 0 1 0 0-2z"/></g><g><path fill="#24dbf0" d="M49 12.5h1a1 1 0 1 0 0-2h-1a1 1 0 1 0 0 2z"/></g><g><path fill="#24dbf0" d="M58 10.5h-1a1 1 0 1 0 0 2h1a1 1 0 1 0 0-2z"/></g><g><path fill="#24dbf0" d="M50 7.5a1 1 0 0 0 1 1h1a1 1 0 1 0 0-2h-1a1 1 0 0 0-1 1z"/></g><g><path fill="#24dbf0" d="M54 7.5a1 1 0 0 0 1 1h1a1 1 0 1 0 0-2h-1a1 1 0 0 0-1 1z"/></g><g><path fill="#24dbf0" d="M54 41.5h-1a1 1 0 1 0 0 2h1a1 1 0 1 0 0-2z"/></g><g><path fill="#24dbf0" d="M49 43.5h1a1 1 0 1 0 0-2h-1a1 1 0 1 0 0 2z"/></g><g><path fill="#24dbf0" d="M58 41.5h-1a1 1 0 1 0 0 2h1a1 1 0 1 0 0-2z"/></g><g><path fill="#24dbf0" d="M54 49.5h-1a1 1 0 1 0 0 2h1a1 1 0 1 0 0-2z"/></g><g><path fill="#24dbf0" d="M50 49.5h-1a1 1 0 1 0 0 2h1a1 1 0 1 0 0-2z"/></g><g><path fill="#24dbf0" d="M58 49.5h-1a1 1 0 1 0 0 2h1a1 1 0 1 0 0-2z"/></g><g><path fill="#24dbf0" d="M53 46.5a1 1 0 0 0-1-1h-1a1 1 0 1 0 0 2h1a1 1 0 0 0 1-1z"/></g><g><path fill="#24dbf0" d="M57 46.5a1 1 0 0 0-1-1h-1a1 1 0 1 0 0 2h1a1 1 0 0 0 1-1z"/></g><g><path fill="#4775e3" d="M32 .5h14v14H32z"/></g><g><path fill="#4775e3" d="M32 38.5h14v14H32z"/></g></g></g></g></svg>