<svg xmlns="http://www.w3.org/2000/svg" width="84" height="51" viewBox="0 0 84 51"><g><g><g><g><path fill="#5b73af" d="M68.072 24.697L65.935 7.451l-4.003.49.002-.003-7.761-4.34a4.701 4.701 0 0 0-2.724-.578L39.194 4.146a4.679 4.679 0 0 0-3.612 2.293l-8.638 14.774a2.037 2.037 0 0 0 1.05 2.936l.354.132c.68.255 1.378.403 2.077.46l-1.095.948-2.19 1.896-6.227 5.279a2.633 2.633 0 0 0-.258 3.731l.632.72a3.435 3.435 0 0 0 4.823.326l2.38 2.713a3.425 3.425 0 0 0 4.824.328l2.377 2.713a3.427 3.427 0 0 0 3 1.14 3.408 3.408 0 0 0 1.826-.81l1.292 1.11a3.436 3.436 0 0 0 4.827.329l1.756-1.523 14.766-11.429.016-.014L69 32.192z"/></g><g><path fill="#5b73af" d="M61.743 27.765l-.016.015L46.96 39.2l-1.756 1.522a3.437 3.437 0 0 1-4.827-.329l-1.292-1.109a3.408 3.408 0 0 1-1.827.81 3.428 3.428 0 0 1-3-1.14l-2.377-2.71a3.426 3.426 0 0 1-4.823-.327l-2.38-2.712a3.437 3.437 0 0 1-4.235.2 2.627 2.627 0 0 0 .21 3.195l.632.718a3.436 3.436 0 0 0 4.824.327l2.38 2.712a3.427 3.427 0 0 0 4.824.327l2.377 2.711a3.428 3.428 0 0 0 3 1.14 3.409 3.409 0 0 0 1.827-.81l1.292 1.109a3.437 3.437 0 0 0 4.826.329l1.756-1.522L63.158 32.22l.016-.014L69 32.2l-.645-5.2z"/></g><g><path fill="#40568f" d="M65.082 34.937l-7.854-6.866-2.184-1.908-1.563-1.365-6.72-5.872.776-6.698c.262-2.265-1.144-4.386-3.312-4.994l-14.649-4.11a3.373 3.373 0 0 0-3.92 1.746l-1.843 3.646-7.907-.544L13.88 25.45 13 33.047l7.697.52.016.014 16.08 14.052 1.752 1.532a3.364 3.364 0 0 0 4.79-.36l2.344-2.759a3.366 3.366 0 0 0 4.79-.36l2.345-2.762a3.352 3.352 0 0 0 1.818.814 3.365 3.365 0 0 0 2.97-1.172l2.347-2.761a3.363 3.363 0 0 0 4.787-.359l.623-.732a2.703 2.703 0 0 0-.277-3.777z"/></g><g><g><path fill="#40568f" d="M65.024 35.188l-2.417-2.048a2.746 2.746 0 0 1-.117 3.491l-.669.761c-1.312 1.495-3.61 1.662-5.134.373l-2.518 2.87a3.67 3.67 0 0 1-3.185 1.218 3.651 3.651 0 0 1-1.95-.846l-2.515 2.871a3.67 3.67 0 0 1-3.187 1.218 3.648 3.648 0 0 1-1.95-.843l-2.516 2.868a3.625 3.625 0 0 1-1.726 1.093l1.07.908c1.437 1.215 3.604 1.058 4.84-.353l2.37-2.702c.537.457 1.18.718 1.837.794a3.458 3.458 0 0 0 3.002-1.147l2.37-2.704a3.44 3.44 0 0 0 1.837.797 3.456 3.456 0 0 0 3-1.148l2.372-2.704c1.436 1.215 3.6 1.058 4.836-.35l.63-.718a2.591 2.591 0 0 0-.28-3.699z"/></g><g><path fill="#40568f" d="M60.642 39.059l-4.35-3.684a1.251 1.251 0 0 0-1.742.126 1.2 1.2 0 0 0 .129 1.713l4.34 3.678.82-.933c.326.277.691.478 1.073.614a1.2 1.2 0 0 0-.27-1.514z"/></g><g><path fill="#40568f" d="M53.697 43.629a1.2 1.2 0 0 0-.258-1.535l-3.906-3.31a1.251 1.251 0 0 0-1.743.127 1.2 1.2 0 0 0 .129 1.713l3.906 3.31c.002 0 .004.002.005.003l.807-.92a3.43 3.43 0 0 0 1.06.612z"/></g></g><g><path fill="#5b73af" d="M20.681 33.418l-.927 1.253c-1.01 1.365-.747 3.309.586 4.342a2.982 2.982 0 0 0 4.242-.6l.927-1.252c1.009-1.365.747-3.309-.586-4.342a2.982 2.982 0 0 0-4.242.6z"/></g><g><path fill="#5b73af" d="M26.33 36.048l-1.746 2.36c-1.01 1.365-.747 3.309.586 4.342a2.982 2.982 0 0 0 4.242-.6l1.745-2.36c1.01-1.364.748-3.308-.585-4.341a2.982 2.982 0 0 0-4.242.6z"/></g><g><path fill="#5b73af" d="M31.793 38.938l-2.379 3.216c-1.01 1.365-.747 3.309.586 4.342a2.982 2.982 0 0 0 4.242-.6l2.379-3.215c1.01-1.365.747-3.309-.586-4.342a2.982 2.982 0 0 0-4.242.6z"/></g><g><path fill="#5b73af" d="M36.762 42.488l-2.518 3.403c-1.01 1.364-.747 3.308.586 4.342a2.982 2.982 0 0 0 4.242-.6l2.517-3.402c1.01-1.365.747-3.309-.586-4.342a2.982 2.982 0 0 0-4.241.6z"/></g><g><path fill="#5b73af" d="M61.98 7.055l-7.667-4.417a4.532 4.532 0 0 0-2.69-.588L39.517 3.196a4.612 4.612 0 0 0-3.569 2.333l-8.533 15.034c-.63 1.11-.135 2.533 1.038 2.987l.35.135c3.127 1.209 6.66.18 8.696-2.534l3.27-4.355s7.857 9.314 16.51-1.563"/></g><g><path fill="#7ba8ff" d="M83.99 34.398L79.908 1.092A1.236 1.236 0 0 0 78.526.01l-9.548 1.18c-2.48.307-4.25 2.582-3.944 5.072l3.279 26.745a4.544 4.544 0 0 0 5.051 3.96l9.548-1.18a1.244 1.244 0 0 0 1.079-1.388z"/></g><g><path fill="#7ba8ff" d="M15.022 1.19L5.474.01a1.235 1.235 0 0 0-.914.253c-.26.204-.427.502-.467.83L.009 34.397c-.083.682.4 1.303 1.079 1.387l9.548 1.18c.187.024.373.035.557.035a4.545 4.545 0 0 0 4.494-3.994L18.966 6.26c.305-2.49-1.464-4.765-3.944-5.071z"/></g><g><path fill="#0066fc" d="M75.548 30.913c1.307 0 2.367-1.082 2.367-2.417 0-1.334-1.06-2.416-2.367-2.416-1.308 0-2.368 1.082-2.368 2.416 0 1.335 1.06 2.417 2.368 2.417z"/></g><g><path fill="#0066fc" d="M7.478 30.913c1.307 0 2.367-1.082 2.367-2.417 0-1.334-1.06-2.416-2.367-2.416-1.308 0-2.368 1.082-2.368 2.416 0 1.335 1.06 2.417 2.368 2.417z"/></g></g></g></g></svg>