<svg xmlns="http://www.w3.org/2000/svg" width="19" height="15" viewBox="0 0 19 15"><g><g><g><path fill="#1773fe" d="M17.878 15c.43 0 .804-.146 1.122-.434l-5.434-5.564-.376.276c-.407.307-.737.547-.99.718-.254.172-.591.347-1.012.526-.421.18-.813.269-1.177.269H9.99c-.365 0-.757-.09-1.178-.269A6.03 6.03 0 0 1 7.8 9.996c-.253-.171-.583-.41-.99-.718L6.435 9 1 14.566c.318.288.691.434 1.122.434h15.756z"/></g><g><path fill="#1773fe" d="M1.129 5.901A5.823 5.823 0 0 1 0 5v8l5-4.634C4 7.718 2.71 6.898 1.129 5.9z"/></g><g><path fill="#1773fe" d="M17.882 5.901A331.673 331.673 0 0 0 14 8.367L19 13V5c-.32.332-.693.632-1.118.901z"/></g><g><path fill="#1773fe" d="M17.303 0H1.696C1.152 0 .733.194.44.58.146.967 0 1.45 0 2.031c0 .469.194.977.583 1.524.389.547.802.976 1.24 1.289.24.178.965.708 2.174 1.59a700.297 700.297 0 0 1 2.778 2.037 146.603 146.603 0 0 1 .45.34c.23.175.421.317.573.425.152.108.336.228.552.362.215.134.419.235.61.302.19.066.367.1.53.1h.02c.163 0 .34-.034.53-.1.192-.067.395-.168.61-.302.216-.134.4-.255.552-.362.152-.108.343-.25.573-.425a71.11 71.11 0 0 1 .45-.34l1.073-.785c.88-.643 2.174-1.59 3.89-2.842.515-.38.946-.838 1.293-1.373.346-.536.519-1.097.519-1.685 0-.491-.168-.912-.504-1.262C18.161.174 17.763 0 17.303 0z"/></g></g></g></svg>