<svg xmlns="http://www.w3.org/2000/svg" width="399" height="376" viewBox="0 0 399 376"><defs><radialGradient id="kub3a" cx="199" cy="201.97" r="173.82" gradientUnits="userSpaceOnUse"><stop offset="0" stop-color="#3ba2ff"/><stop offset="1" stop-color="#3e82bf" stop-opacity="0"/></radialGradient><linearGradient id="kub3b" x1="256.93" x2="299.78" y1="143.31" y2="143.31" gradientUnits="userSpaceOnUse"><stop offset="0" stop-color="#d6d5d5"/><stop offset=".19" stop-color="#9c9b9b"/><stop offset=".39" stop-color="#656464"/><stop offset=".58" stop-color="#393939"/><stop offset=".75" stop-color="#1a1a1a"/><stop offset=".89" stop-color="#070707"/><stop offset=".99"/></linearGradient><linearGradient id="kub3c" x1="166.91" x2="209.75" y1="143.33" y2="143.33" gradientUnits="userSpaceOnUse"><stop offset="0" stop-color="#d6d5d5"/><stop offset=".19" stop-color="#9c9b9b"/><stop offset=".39" stop-color="#656464"/><stop offset=".58" stop-color="#393939"/><stop offset=".75" stop-color="#1a1a1a"/><stop offset=".89" stop-color="#070707"/><stop offset=".99"/></linearGradient><linearGradient id="kub3d" x1="1.09" x2="398.61" y1="76.32" y2="76.32" gradientUnits="userSpaceOnUse"><stop offset="0" stop-color="#a1baff"/><stop offset=".43" stop-color="#fff"/></linearGradient><linearGradient id="kub3e" x1="4.38" x2="392.01" y1="127.38" y2="127.38" gradientUnits="userSpaceOnUse"><stop offset="0" stop-color="#0344e2"/><stop offset=".41" stop-color="#033ac9"/><stop offset=".64" stop-color="#1960d4"/><stop offset=".91" stop-color="#5583f1"/><stop offset="1" stop-color="#5484f3"/></linearGradient><linearGradient id="kub3f" x1=".02" x2="57.1" y1="198.77" y2="203.75" gradientUnits="userSpaceOnUse"><stop offset="0" stop-color="#5380ed"/><stop offset=".46" stop-color="#3d6bd9"/><stop offset="1" stop-color="#527fed"/></linearGradient><linearGradient id="kub3g" x1="1.09" x2="57.07" y1="122.98" y2="122.98" gradientUnits="userSpaceOnUse"><stop offset="0" stop-color="#a1baff"/><stop offset=".43" stop-color="#fff"/></linearGradient><linearGradient id="kub3h" x1="53.81" x2="53.81" y1="160.83" y2="297.41" gradientUnits="userSpaceOnUse"><stop offset="0" stop-color="#a1baff"/><stop offset=".43" stop-color="#fff"/></linearGradient><linearGradient id="kub3i" x1="393.33" x2="397.41" y1="36.57" y2="203.27" gradientUnits="userSpaceOnUse"><stop offset="0" stop-color="#a1baff"/><stop offset=".43" stop-color="#fff"/></linearGradient><linearGradient id="kub3j" x1="82.09" x2="94.11" y1="245.65" y2="245.65" gradientUnits="userSpaceOnUse"><stop offset="0" stop-color="#0b09a7"/><stop offset="1" stop-color="#090e96"/></linearGradient><linearGradient id="kub3k" x1="78.57" x2="105.9" y1="221.11" y2="221.11" gradientUnits="userSpaceOnUse"><stop offset="0" stop-color="#588afd"/><stop offset="1" stop-color="#00008b"/><stop offset="1"/></linearGradient><linearGradient id="kub3l" x1="88.99" x2="89.83" y1="224.72" y2="224.72" gradientUnits="userSpaceOnUse"><stop offset="0" stop-color="#7981ff"/><stop offset=".76" stop-color="#fff"/></linearGradient><linearGradient id="kub3m" x1="89.12" x2="89.31" y1="209.52" y2="214.85" gradientUnits="userSpaceOnUse"><stop offset="0" stop-color="#7981ff"/><stop offset=".76" stop-color="#fff"/></linearGradient><linearGradient id="kub3n" x1="91.56" x2="92.08" y1="206.7" y2="206.7" gradientUnits="userSpaceOnUse"><stop offset="0" stop-color="#7981ff"/><stop offset=".76" stop-color="#fff"/></linearGradient><linearGradient id="kub3o" x1="86.32" x2="86.82" y1="206.65" y2="206.65" gradientUnits="userSpaceOnUse"><stop offset="0" stop-color="#7981ff"/><stop offset=".76" stop-color="#fff"/></linearGradient><linearGradient id="kub3p" x1="86.49" x2="89.95" y1="225.96" y2="225.96" gradientUnits="userSpaceOnUse"><stop offset="0" stop-color="#7981ff"/><stop offset=".76" stop-color="#fff"/></linearGradient><linearGradient id="kub3q" x1="138.65" x2="138.65" y1="200.06" y2="240.94" gradientUnits="userSpaceOnUse"><stop offset=".04" stop-color="#10003b"/><stop offset="1" stop-color="#090e96"/></linearGradient><linearGradient id="kub3r" x1="131.83" x2="146.45" y1="188.77" y2="188.77" gradientUnits="userSpaceOnUse"><stop offset="0" stop-color="#7633ff"/><stop offset=".1" stop-color="#7137ff"/><stop offset=".22" stop-color="#6243ff"/><stop offset=".35" stop-color="#4957ff"/><stop offset=".48" stop-color="#2672ff"/><stop offset=".61" stop-color="#0090ff"/></linearGradient><linearGradient id="kub3s" x1="136.04" x2="136.61" y1="172.5" y2="172.5" gradientUnits="userSpaceOnUse"><stop offset="0" stop-color="#562300"/><stop offset=".43" stop-color="#663b00"/></linearGradient><linearGradient id="kub3t" x1="139.16" x2="141.13" y1="178.66" y2="178.66" gradientUnits="userSpaceOnUse"><stop offset="0" stop-color="#7633ff"/><stop offset=".1" stop-color="#7137ff"/><stop offset=".22" stop-color="#6243ff"/><stop offset=".35" stop-color="#4957ff"/><stop offset=".48" stop-color="#2672ff"/><stop offset=".61" stop-color="#0090ff"/></linearGradient><linearGradient id="kub3u" x1="136.95" x2="139.15" y1="178.75" y2="178.75" gradientUnits="userSpaceOnUse"><stop offset="0" stop-color="#7633ff"/><stop offset=".1" stop-color="#7137ff"/><stop offset=".22" stop-color="#6243ff"/><stop offset=".35" stop-color="#4957ff"/><stop offset=".48" stop-color="#2672ff"/><stop offset=".61" stop-color="#0090ff"/></linearGradient><linearGradient id="kub3v" x1="215.21" x2="215.21" y1="270.14" y2="292.01" gradientUnits="userSpaceOnUse"><stop offset=".04" stop-color="#10003b"/><stop offset="1" stop-color="#090e96"/></linearGradient><linearGradient id="kub3w" x1="198.26" x2="234.94" y1="261.59" y2="261.59" gradientUnits="userSpaceOnUse"><stop offset="0" stop-color="#588afd"/><stop offset="1" stop-color="#00008b"/><stop offset="1"/></linearGradient><linearGradient id="kub3x" x1="215.67" x2="215.51" y1="250.74" y2="257.22" gradientUnits="userSpaceOnUse"><stop offset="0" stop-color="#a1baff"/><stop offset=".43" stop-color="#fff"/></linearGradient><linearGradient id="kub3y" x1="215.26" x2="215.26" y1="242.75" y2="250.9" gradientUnits="userSpaceOnUse"><stop offset="0" stop-color="#a1baff"/><stop offset=".43" stop-color="#fff"/></linearGradient><linearGradient id="kub3z" x1="181.98" x2="186.65" y1="281.94" y2="301.94" gradientUnits="userSpaceOnUse"><stop offset="0" stop-color="#7633ff"/><stop offset=".22" stop-color="#4e53ff"/><stop offset=".44" stop-color="#2c6dff"/><stop offset=".65" stop-color="#1480ff"/><stop offset=".84" stop-color="#058cff"/><stop offset="1" stop-color="#0090ff"/></linearGradient><linearGradient id="kub3A" x1="183.52" x2="183.96" y1="258.12" y2="283.73" gradientUnits="userSpaceOnUse"><stop offset="0" stop-color="#a1baff"/><stop offset=".3" stop-color="#c9d8ff"/><stop offset=".59" stop-color="#e7edff"/><stop offset=".83" stop-color="#f9faff"/><stop offset="1" stop-color="#fff"/></linearGradient><clipPath id="kub3B"><path fill="#fff" d="M119 114V92h24v22zm11.966-18.47c-4.54 0-8.236 3.449-8.236 7.687s3.695 7.686 8.236 7.686c4.54 0 8.235-3.448 8.235-7.686 0-4.238-3.695-7.664-8.235-7.687z"/></clipPath></defs><g><g><path fill="url(#kub3a)" d="M-53-59h504v504H-53z"/></g><g><path fill="url(#kub3b)" d="M289.711 142.193L256.95 161.61l.552.913 32.762-19.419a2.671 2.671 0 0 0 1.316-2.334c0-.977-.51-1.825-1.338-2.314l-4.416-2.546a1.597 1.597 0 0 1-.807-1.38c0-.573.276-1.103.765-1.4l9.851-6.155c.361.085.765.128 1.19.128 1.634 0 2.95-.68 2.95-1.507 0-.828-1.316-1.507-2.95-1.507-1.636 0-2.952.68-2.952 1.507 0 .318.212.615.552.87l-9.215 5.751a2.73 2.73 0 0 0-1.274 2.335 2.74 2.74 0 0 0 1.338 2.292l4.416 2.546c.51.297.807.807.807 1.4 0 .574-.297 1.104-.786 1.402z"/></g><g><path fill="url(#kub3c)" d="M176.189 140.792c0-.573.297-1.104.806-1.4l4.417-2.547c.828-.489 1.337-1.337 1.337-2.292a2.683 2.683 0 0 0-1.274-2.335l-9.214-5.751c.34-.255.552-.552.552-.87 0-.828-1.317-1.507-2.952-1.507s-2.951.68-2.951 1.507c0 .827 1.316 1.507 2.951 1.507.425 0 .828-.043 1.19-.128l9.851 6.155c.488.297.764.827.764 1.4s-.318 1.083-.806 1.38l-4.417 2.546a2.682 2.682 0 0 0-1.337 2.314c0 .976.488 1.846 1.316 2.334l32.762 19.419.552-.934-32.762-19.419a1.552 1.552 0 0 1-.785-1.38z"/></g><g><path fill="url(#kub3d)" d="M398.61 37.02S339.073.573 214.993.002c-41.352-.19-115.656 10.797-160 32.243C3.348 57.219 1.1 89.27 1.1 89.27v4.268c2.8 8.494 10.694 28.756 25.355 39.574 18.862 13.903 30.044 19.523 30.044 19.523l6.28-3.528 329.402-109.89z"/></g><g><path fill="url(#kub3e)" d="M4.39 249.268s22.79-67.968 185.69-81.054c112.49-9.02 201.937 30.449 201.937 30.449V39.56S340.039 6.064 216.197 5.492c-41.282-.19-115.456 10.82-159.724 32.312C4.92 62.832 4.771 96.519 4.771 96.519z"/></g><g opacity=".3"><g opacity=".17"><path fill="#fff" d="M172.145 36.24v8.177L88.861 62.594l-.171-8.412z"/></g><g opacity=".17"><path fill="#fff" d="M172.145 48.32v8.177L88.861 74.674l-.171-8.412z"/></g><g opacity=".17"><path fill="#fff" d="M172.145 60.4v8.198L88.861 86.754l-.171-8.39z"/></g><g opacity=".17"><path fill="#fff" d="M172.145 73.57v8.183L88.861 99.924l-.171-8.398z"/></g><g opacity=".17"><path fill="#fff" d="M172.145 85.65v8.087l-37.165 8.385-.17-8.321z"/></g><g opacity=".17"><path fill="#fff" d="M172.145 97.73v8.198l-83.284 18.156-.171-8.39z"/></g><g opacity=".17"><path fill="#fff" d="M172.145 110.91v8.183l-83.284 18.171-.171-8.398z"/></g><g opacity=".17"><path fill="#fff" d="M172.145 122.99v8.177l-83.284 18.177-.171-8.412z"/></g><g opacity=".17"><path fill="#fff" d="M172.145 135.07v8.198l-83.284 18.156-.171-8.412z"/></g></g><g opacity=".7"><g opacity=".7"><path fill="#d1deff" d="M324.78 148.367l30.198-17.697 30.197 17.697-30.615 17.442z"/></g><g opacity=".7"><path fill="#b3c5f3" d="M324.78 137.387l30.198-17.697 30.197 17.697-30.615 17.442z"/></g><g opacity=".7"><path fill="#0038ba" d="M324.78 124.217l30.198-17.697 30.197 17.697-30.615 17.442z"/></g><g opacity=".7"><path fill="#0142da" d="M324.78 113.206l30.198-17.676 30.197 17.676-30.615 17.463z"/></g><g opacity=".7"><path fill="#175eeb" d="M324.78 101.146l30.198-17.686 30.197 17.686L354.56 118.6z"/></g><g opacity=".7"><path fill="#00ddd2" d="M324.78 90.167l30.198-17.697 30.197 17.697-30.615 17.442z"/></g><g opacity=".7"><path fill="#5587fc" d="M324.78 80.287l30.198-17.697 30.197 17.697-30.615 17.442z"/></g><g opacity=".7"><path fill="#93afee" d="M324.78 69.307l30.198-17.697 30.197 17.697-30.615 17.442z"/></g></g><g opacity=".6"><g opacity=".34"><path fill="#fff" d="M267.68 17.57v5.03l51.482 9.245.128-5.158z"/></g><g opacity=".34"><path fill="#fff" d="M267.68 25.26v5.022l51.482 9.253.128-5.15z"/></g><g opacity=".34"><path fill="#fff" d="M267.68 32.94v5.03l51.482 9.245.128-5.158z"/></g><g opacity=".34"><path fill="#fff" d="M267.68 40.63v5.022l51.482 9.253.128-5.15z"/></g><g opacity=".34"><path fill="#fff" d="M267.68 47.22v5.302l22.953 4.58.107-5.437z"/></g><g opacity=".34"><path fill="#fff" d="M267.68 56v5.008l51.482 9.267.128-5.158z"/></g><g opacity=".34"><path fill="#fff" d="M267.68 63.69v5.022l51.482 9.253.128-5.171z"/></g><g opacity=".34"><path fill="#fff" d="M267.68 71.38v5.03l51.482 9.245.128-5.158z"/></g><g opacity=".34"><path fill="#fff" d="M267.68 79.06v5.022l51.482 9.253.128-5.15z"/></g></g><g opacity=".6"><g opacity=".34"><path fill="#fff" d="M267.68 90.04v5.008l51.482 9.267.128-5.158z"/></g><g opacity=".34"><path fill="#fff" d="M267.68 97.73v5.022l51.482 9.253.128-5.171z"/></g><g opacity=".34"><path fill="#fff" d="M267.68 105.42v5.008l51.482 9.267.128-5.158z"/></g><g opacity=".34"><path fill="#fff" d="M267.68 113.1v5.022l51.482 9.253.128-5.171z"/></g><g opacity=".34"><path fill="#fff" d="M267.68 120.79v5.302l22.953 4.58.107-5.46z"/></g><g opacity=".34"><path fill="#fff" d="M267.68 128.48v5.022l51.482 9.253.128-5.15z"/></g><g opacity=".34"><path fill="#fff" d="M267.68 136.16v5.03l51.482 9.245.128-5.158z"/></g><g opacity=".34"><path fill="#fff" d="M267.68 144.95v5.008l51.482 9.267.128-5.158z"/></g><g opacity=".34"><path fill="#fff" d="M267.68 152.64v5.022l51.482 9.253.128-5.171z"/></g></g><g opacity=".3"><path fill="#0c7cf7" d="M35.69 120.791c9.4 0 17.02-12.782 17.02-28.55S45.09 63.69 35.69 63.69c-9.4 0-17.02 12.783-17.02 28.55 0 15.769 7.62 28.551 17.02 28.551z"/></g><g><path fill="#0653e4" d="M38.431 186.681c9.097 0 16.472-12.782 16.472-28.55S47.528 129.58 38.43 129.58c-9.097 0-16.471 12.783-16.471 28.55 0 15.769 7.374 28.551 16.471 28.551z"/></g><g><g><g><path fill="#d1deff" d="M199.738 120.116l-.568 27.132 11.333-.597.568-27.111z"/></g><g><path fill="#b3c5f3" d="M189.18 107.17l10.556 12.947-.568 27.133-11.018-13.886z"/></g><g><path fill="#e5edff" d="M189.18 107.171l11.144-.661 10.745 13.033-11.334.576z"/></g></g><g><g><path fill="#5587fc" d="M224.482 95.575l-1.072 50.462 11.333-.597L235.816 95z"/></g><g><path fill="#0142da" d="M213.946 82.64l10.534 12.935-1.072 50.461-11.018-13.851z"/></g><g><path fill="#175eeb" d="M213.95 82.64l11.123-.66L235.817 95l-11.333.576z"/></g></g><g><g><path fill="#a8c3fe" d="M248.09 62.394l-1.78 83.76 11.284-.596 1.759-83.738z"/></g><g><path fill="#93afee" d="M237.58 49.49l10.51 12.91-1.78 83.76-10.97-13.825z"/></g><g><path fill="#b2caff" d="M237.58 49.49l11.096-.66 10.677 12.996-11.263.574z"/></g></g></g><g><path fill="url(#kub3f)" d="M56.736 308.206l.365-155.005s-14.361-4.488-34.788-23.16C1.886 111.37 1.522 87.85 1.522 87.85L0 244.315s.707 17.317 17.019 40.329c9.367 13.23 25.378 21.381 33.93 25.022z"/></g><g opacity=".8"><g opacity=".45"><path fill="#fff" d="M5.23 137.26v5.008l38.369 27.935.064-5.114z"/></g><g opacity=".45"><path fill="#fff" d="M5.23 144.95v5.01l38.369 27.933.064-5.096z"/></g><g opacity=".45"><path fill="#fff" d="M5.23 152.64v4.99l38.369 27.953.064-5.117z"/></g><g opacity=".45"><path fill="#fff" d="M5.23 160.32v5.01l38.369 27.933.064-5.096z"/></g><g opacity=".45"><path fill="#fff" d="M5.23 168.01v4.969l17.482 12.6.087-5.053z"/></g><g opacity=".45"><path fill="#fff" d="M5.23 175.7v5.008l38.369 27.935.064-5.114z"/></g><g opacity=".45"><path fill="#fff" d="M5.23 183.38v5.01l38.369 27.933.064-5.096z"/></g><g opacity=".45"><path fill="#fff" d="M5.23 191.07v5.008l38.369 27.935.064-5.114z"/></g><g opacity=".45"><path fill="#fff" d="M5.23 198.76v5.01l38.369 27.933.064-5.096z"/></g><g opacity=".45"><path fill="#fff" d="M5.23 221.82v5.008l38.369 27.935.064-5.114z"/></g><g opacity=".45"><path fill="#fff" d="M5.23 229.5v5.01l38.369 27.933.064-5.096z"/></g><g opacity=".45"><path fill="#fff" d="M5.23 237.19v4.99l38.369 27.953.064-5.096z"/></g><g opacity=".45"><path fill="#fff" d="M5.23 244.88v5.01l38.369 27.933.064-5.096z"/></g></g><g><path fill="url(#kub3g)" d="M1.294 87.85L1.1 108.243c7.487 16.108 23.516 39.267 55.981 49.885l.022-5.108s-14.415-4.476-34.919-23.096C1.66 111.304 1.294 87.85 1.294 87.85z"/></g><g><path fill="url(#kub3h)" d="M57.074 152.64l-6.564 3.34v153.688l6.589-1.127z"/></g><g><path fill="url(#kub3i)" d="M392.02 38.459v160.3l6.589-3.392V36.24z"/></g><g><g><path fill="#6591fa" d="M97.47 250.37v9.183l15.373 9.485v-9.485z"/></g><g><path fill="#7ba8ff" d="M97.47 249.432l16.382-10.042 16.56 9.936-16.56 9.83z"/></g><g><path fill="#4775e3" d="M130.42 250.37v9.234l-17.57 9.434v-9.434z"/></g><g><path fill="#6591fa" d="M72.22 264.64v9.183l17.57 9.485v-9.485z"/></g><g><path fill="#7ba8ff" d="M72.22 264.802l16.382-10.042 16.56 9.936-16.56 9.83z"/></g><g><path fill="#4775e3" d="M105.163 264.64v9.234l-15.373 9.434v-9.434z"/></g><g><path fill="#6591fa" d="M121.63 240.48l.315 33.563 16.156 9.263-.315-33.858z"/></g><g><path fill="#7ba8ff" d="M121.63 239.542l15.836-10.042 16.009 9.936-16.01 9.83z"/></g><g><path fill="#7ba8ff" d="M153.156 240.48l.315 33.645-16.156 9.181-.315-33.839z"/></g><g><path fill="#6591fa" d="M97.47 278.92v9.183l15.373 9.485v-9.485z"/></g><g><path fill="#7ba8ff" d="M97.47 279.072l16.395-10.042 16.548 9.936-16.548 9.83z"/></g><g><path fill="#4775e3" d="M130.42 277.82v9.777l-17.57 9.989v-9.989z"/></g><g><g><path fill="#eea886" d="M105.523 209.383s-.954 1.002-.98 1.107c-.039.106-.593-1.66-.593-1.66z"/></g><g><path fill="#fff" d="M103.95 208.828l-.374-1.252c-.038-.172.103-.62.323-1.134.219-.513.734-1.106.825-1.12.09-.013.18-.079.4.027.218.105.347.316.347.316s.335 0 .464.277c0 0 .31.013.413.356 0 0 .296.026.36.276 0 0-.154.461-.154.646-.013.184-.541 1.33-1.044 2.174.013-.013-.554.396-1.56-.566z"/></g><g><path fill="#fff" d="M104.67 205.462s-.528 1.304-.322 1.423c.193.118.335.026.335.026l.026.633s.245.408.618.013c0 0 .194.408.503-.013 0 0 .245.21.426.04.18-.172.476-1.029.476-1.029s-.012-.21-.36-.276c0 0-.09-.33-.413-.356 0 0-.103-.25-.464-.277 0 0-.284-.54-.748-.343l-.077.159z"/></g><g><path fill="#fff" d="M103.59 207.543s.722-.633 1.263-.804c.13-.04.245-.053.323.053.077.105.038.356-.258.645-.297.29-.555.804-.555.804s-.386.198-.773-.698z"/></g><g><path fill="#131c24" d="M81.691 262.87s-.631.461-.98.79c-.347.33-.824.673-1.12 1.503-.297.83.167 1.436.966 1.489.786.053 1.998-.567 2.127-1.305.116-.738 1.044-.645 1.173-1.172.116-.528-.039-1.16-.039-1.16z"/></g><g><path fill="#eea886" d="M81.793 262.266l-.103.606s.322.62 2.101.132l-.09-.593z"/></g><g><path fill="#d6c7b2" d="M83.801 263s-.4.052-.683.105c-.284.039-.85-.33-1.418-.238l.18.738c-.012 0 1.883-.356 1.921-.606z"/></g><g><path fill="#131c24" d="M93.059 262.87s.631.461.98.79c.348.33.824.673 1.121 1.503.296.83-.168 1.436-.967 1.489-.786.053-1.998-.567-2.127-1.305-.116-.738-1.044-.645-1.173-1.172-.116-.528.039-1.16.039-1.16z"/></g><g><path fill="#eea886" d="M92.958 262.266l.103.606s-.322.62-2.101.132l.09-.593z"/></g><g><path fill="url(#kub3j)" d="M93.696 229.3s-6.136-1.238-9.32-.065l-.387.158s-.013.053-.026.158c-.025.237-.103.738-.193 1.423a3.38 3.38 0 0 1-.051.356c-.452 3.505-1.135 8.605-1.264 11.082-.167 3.255-.348 3.729-.348 4.335 0 1.647-.567 15.576-.567 15.576s.967.527 2.45 0c0 0 1.752-13.81 2.062-14.825.31-1.028 2.462-10.33 2.836-10.37.386-.04 1.43 9.843 1.52 11.187.078 1.344 0 13.81.44 14.034.437.224 2.203.25 2.332-.198 0 0 .516-12.676.516-14.007 0-1.33.425-11.715.387-12.163.013 0 .129-3.254-.387-6.68z"/></g><g><path fill="url(#kub3k)" d="M90.832 211.39s2.668.805 4.138 1.187c1.186.316 3.248 1.397 5.582 1.779.58.092 2.964-5.706 2.964-5.706s2.385.567 2.398.646c.039.21-3.107 7.92-4.035 8.288-.722.303-7.077-.566-7.077-.566s-.696 9.87-.696 11.082c0 1.212.013 4.309.013 4.309s-1.689 1.04-5.569 1.146c0 0-5.736.026-5.156-2.082.426-1.555.451-12.084.335-12.136-.116-.066-2.191 2.609-1.998 3.123.206.514 5.582 2.345 5.582 2.345s.155.593-.683 1.937c0 0-8.044-2.398-8.07-2.912-.026-.5 3.339-10.278 4.447-10.792 1.586-.738 5.737-1.898 5.737-1.898z"/></g><g><path fill="#d6c7b2" d="M90.95 263s.4.052.683.105c.284.039.851-.33 1.418-.238l-.18.738c.013 0-1.882-.356-1.921-.606z"/></g><g><path fill="url(#kub3l)" d="M88.99 224.538s.58-.013.76-.04c.18-.025.065.357-.142.436-.219.066-.618-.396-.618-.396z"/></g><g><path fill="#3757d2" d="M87.01 211.662s-.064 2.372 2.333 2.32c2.475-.054 1.96-2.452 1.96-2.452s-1.882-.87-4.293.132z"/></g><g><path fill="url(#kub3m)" d="M90.757 209.532s-.219 1.199.155 2.029c0 0 .374 1.91-1.547 2.003-1.92.092-1.895-2.069-1.895-2.069s.4-.237.09-1.95c-.31-1.713 3.197-.013 3.197-.013z"/></g><g><path fill="#fff" d="M89.58 202.585s2.448.408 2.075 4.427c-.374 4.02-2.54 3.69-2.682 3.69-.141 0-2.178.079-2.333-4.836 0-.013-.064-3.637 2.94-3.281z"/></g><g><path fill="url(#kub3n)" d="M91.711 205.865s.27-.303.374 0c.103.303-.348 1.607-.387 1.726 0 0-.051.118-.116.053-.064-.066.129-1.78.129-1.78z"/></g><g><path fill="url(#kub3o)" d="M86.704 205.815s-.258-.303-.361 0c-.103.303.335 1.686.348 1.726 0 0 .052.119.116.053.064-.053-.103-1.78-.103-1.78z"/></g><g><path d="M91.697 206.49l-.348.487s.012-1.08-.052-1.252c-.052-.171.064-.75.013-.883-.052-.118-1.676.33-4.357.053 0 0 .296.975.129 1.041-.18.066-.09 1.265-.09 1.265l-.284-.342s-.322-2.043-.297-2.386c.04-.448-.103-2.57 3.661-2.2.426.04.838.198 1.186.474.387.303.787.79.748 1.45-.039.896-.31 2.293-.31 2.293z"/></g><g><path fill="url(#kub3p)" d="M89.326 227.372s-.258.066-.374.04c0 0-.219-.066-.387-.106-.051-.013-.09-.026-.129-.026-.128-.013-.4 0-.683-.119-.283-.118-1.263-.632-1.263-.632l.284-.923.206-.738s1.65-.448 1.933-.369c.026.014.052.014.078.027.232.092.36.25.477.316.038.026.45.277.477.422.025.197-.026.355-.13.448 0 0 .04.395-.102.619 0 0 .051.356-.207.593 0-.026.013.356-.18.448z"/></g><g><path fill="#e55353" d="M85.038 212.284s.4-.21.773-.25"/></g><g><path fill="#e55353" d="M92.908 211.997s.438.066.773.224"/></g></g><g><g><path fill="#131c24" d="M130.89 237.06s-.404.907-.73 1.261c-.339.355-1.63.999-1.63 2.063-.013 1.156 2.165.828 3.025.788.848-.04.913-.657 1.278-1.314.352-.657.717-.538.783-1.064.065-.525-.274-1.708-.274-1.708z"/></g><g><path fill="#3c568a" d="M130.855 236.736l-.065.552s1.343.446 2.608.052l-.065-.749z"/></g><g><path fill="#131c24" d="M146.594 237.06s.404.907.73 1.261c.339.355 1.63.999 1.63 2.063.013 1.156-2.165.828-3.025.788-.848-.04-.913-.657-1.278-1.314s-.717-.538-.783-1.064c-.065-.525.274-1.708.274-1.708z"/></g><g><path fill="#3c568a" d="M146.633 236.736l.065.552s-1.343.446-2.608.052l.065-.749z"/></g><g><path fill="url(#kub3q)" d="M145.926 222.173c0 1.419 1.317 14.4 1.317 14.4-.156.472-3.377.42-3.885.183-.509-.236-1.97-13.099-2.06-14.53-.092-1.433-2.204-13.9-2.635-13.848-.443.052-2.543 13.4-2.895 14.491-.352 1.09-1.956 14.005-1.956 14.005-1.108.618-3.742-.157-3.742-.157s.548-13.257.613-13.664c.091-.591 0-2.194.248-5.728.234-3.166 1.056-10.077 1.59-13.808.014-.132.04-.263.053-.381l.221-1.524c.013-.105.026-.17.026-.17.144-.067.287-.12.444-.172 3.69-1.248 10.719-1.169 10.719-1.169s.09 1.274.104 1.34c.013.079.026.197.039.342.04.328.104.814.17 1.392v.013c0 .014 0 .04.013.053.247 2.023.6 4.992.56 5.308-.052.46 1.056 12.205 1.056 13.624z"/></g><g><path fill="url(#kub3r)" d="M146.445 180.15l-1.813 6.557c-.065.21-.13.473-.209.775v.026c-.3 1.17-.678 2.956-.782 4.927-.078 1.353.17 6.779.17 6.779s-2.752 1.038-6.86.775c0 0-4.42-.105-4.055-2.838.952-7.226.026-10.208-.104-10.93 0 0-.522-3.324-.952-6.267 1.239-.473 6.48-2.444 6.48-2.444l2.752.21c-.013 0 4.173 1.038 5.373 2.43z"/></g><g><path fill="#fff" d="M140.93 177.67c-.157-.395-.065-2.116-.065-2.116s-3.417-.92-3.326-.25c.079.592-.13 2.103-.182 2.497-.091.04-.196.079-.287.131 0 0 .717 1.261 2.086 1.38.861.078 1.604-1.038 1.956-1.577 0 0-.065-.026-.182-.066z"/></g><g><path fill="#fff" d="M139.3 169.35s2.686.46 2.23 4.69c-.457 4.231-2.83 3.863-2.986 3.863-.157 0-2.387.053-2.504-5.124 0 0-.04-3.836 3.26-3.429z"/></g><g><path fill="url(#kub3s)" d="M136.46 171.62s-.287-.329-.404-.013c-.117.315.313 1.747.365 1.826 0 0 .091.145.17.079.078-.066-.13-1.892-.13-1.892z"/></g><g><path fill="#1b2833" d="M139.158 178.84l.626.958s-.652.368-1.264-.026z"/></g><g><path d="M132.74 200.474s3.364 1.248 10.993.079l-.105-1.393s-4.42 1.314-10.758.184z"/></g><g><path d="M141.118 177.73s-.783 5.938-.678 11.05c.104 5.11 1.76 14.7 1.76 14.7s2.934-.289 3.664-1.208c0 0-1.682-9.236-1.643-10.603.052-1.366 2.165-11.653 2.165-11.653s-.822-1.117-5.268-2.286z"/></g><g><path d="M136.907 178.03s-.013 5.623-.118 10.747c-.104 5.11-.782 14.636-.782 14.636s-3.443-.5-4.173-1.42c0 0 1.213-8.96 1.16-10.326-.051-1.366-1.564-11.561-1.564-11.561s.535-.75 5.477-2.076z"/></g><g><path fill="#3e5e78" d="M137.33 199.58h2.073v1.55h-2.073z"/></g><g><path d="M138.863 179.56s-.926 3.18-1.005 9.499c-.078 6.32.118 8.132.118 8.132l.717 1.445.965-1.497s-.313-14.531-.13-17.448z"/></g><g><path fill="#fff" d="M142.72 188.434s1.37-.696 1.565-.814c.195-.118 2.477-.46 2.764-.46.287.013.3.236.222.328-.078.08-2.36.46-2.4.513-.039.052.196.04.196.04s2.465-.04 2.634.13c.17.171-.026.33-.13.368 0 0 .222.263-.04.368-.26.105-.612.171-.612.171s.326.17.117.315c-.208.145-2.83.96-2.83.96s-.977-1.866-1.486-1.919z"/></g><g><path d="M147.423 193.197c-1.773.433-5.894-.263-7.458-.618-.34-.079-.705-.144-1.096-.223a53.171 53.171 0 0 0-1.851-.342c-.666-.118-1.148-.197-1.148-.197s8.632-1.957 8.945-1.957c.313 0-.795-5.085-.795-5.085s-1.108-4.256-.535-5.925c0 0 2.191.67 2.895 1.182.391.29.691 2.129.952 3.39.34 1.59 1.134 5.216 1.226 5.978.091.683.639 3.363-1.135 3.797z"/></g><g><path d="M134.216 178.86s-2.647.907-2.778 1.261c-.534 1.472-.782 3.075-.952 3.718-.208.789-.69 3.14-.808 3.902-.156.973-.456 4.44-.326 4.966.17.67 1.747.631 2.595.487.848-.132 12.662-3.022 12.662-3.022s-.678-2.207-.705-2.404c0 0-9.101 1.05-10.262 1.3-.665.145-.808.197-.808.197s1.995-8.316 1.382-10.405z"/></g><g><path fill="#fff" d="M135.786 188.766s-1.187-.973-1.343-1.13c-.157-.158-2.321-.986-2.608-1.038-.287-.053-.326.17-.313.289.039.197 2.243.946 2.269.998.026.066-.196-.013-.196-.013s-2.4-.578-2.595-.446c-.208.131-.039.315.04.38 0 0-.274.21-.04.368.235.158.561.303.561.303s-.352.092-.183.289c.183.197 1.435.486 1.435.486s2.464-.552 2.973-.486z"/></g><g><path d="M141.772 168.84c-.222-.262-.548-.25-.77-.197-.195-.131-.443-.289-.443-.289-1.017-.59-2.83-.302-3.494-.013-.978.815-1.056 2.194-1.017 2.956.026.184.039.368.065.539.091.762.182 1.419.182 1.419l.313.368s-.078-1.262.118-1.327c.104-.04.13-.29.13-.526a5.43 5.43 0 0 0-.013-.368c2.008-.932 4.251-.262 4.303-.144.026.079.078.328.118.539.026.13.052.25.078.315.065.184.039 1.314.039 1.314l.391-.513s.091-.433.183-1.011c0 0 .013-.092.039-.237.13-1.09.039-2.496-.222-2.825z"/></g><g><path fill="url(#kub3t)" d="M140.871 177.34s-.547.723-1.721 1.498l.73 1.13 1.239-2.234z"/></g><g><path fill="url(#kub3u)" d="M137.403 177.51s.705.88 1.76 1.327l-.795 1.17-1.408-1.985z"/></g></g></g><g><g><g><path fill="#6591fa" d="M164.51 292.19v10.485l18.065 10.828v-10.828z"/></g><g><path fill="#7ba8ff" d="M164.51 291.622l18.716-11.602 18.92 11.48-18.92 11.356z"/></g><g><path fill="#4775e3" d="M202.15 292.19v10.543l-19.57 10.77v-10.77z"/></g><g><path fill="#6591fa" d="M135.91 308.94v10.485l19.57 10.828v-10.828z"/></g><g><path fill="#7ba8ff" d="M135.91 308.362l18.716-11.602 18.92 11.48-18.92 11.356z"/></g><g><path fill="#4775e3" d="M173.545 308.94v10.543l-18.065 10.77v-10.77z"/></g><g><path fill="#6591fa" d="M193.11 308.94v10.485l18.065 10.828v-10.828z"/></g><g><path fill="#7ba8ff" d="M193.11 308.362l17.967-11.602 18.164 11.48-18.164 11.356z"/></g><g><path fill="#7ba8ff" d="M229.245 308.94v10.543l-18.065 10.77v-10.77z"/></g><g><path fill="#6591fa" d="M164.51 325.69v10.485l18.065 10.828v-10.828z"/></g><g><path fill="#7ba8ff" d="M164.51 325.112l18.73-11.602 18.906 11.48-18.905 11.356z"/></g><g><path fill="#4775e3" d="M202.15 324.16v11.296l-19.57 11.54v-11.54z"/></g></g><g><g><path fill="#131c24" d="M220.55 311.89c-.534.488-.64 1.266-1.234 1.616-.168.107-.503.198-.9.274-.715.122-1.644.153-2.086-.106-.152-.092-.259-.214-.274-.381-.107-.9 1.234-1.92 1.828-2.378.365-.274.746-.93 1.036-1.524.182-.365.35-.716.441-.944 0 0 .03.06.122.122.122.091.35.167.762.106.563-.091.792-.244.853-.305l.015-.015.015-.015c.122.564.305 1.143.366 1.417.259.976-.427 1.661-.945 2.134z"/></g><g><path fill="#fff" d="M211.716 271.557s-1.904 6.644-2.24 8.335c-.334 1.692-1.263 9.906-1.355 11.308-.106 1.402-1.508 7.939-1.569 8.442-.533 3.703-1.142 8.823-1.142 8.823s1.203 1.417 1.767-.045c1.995-5.136 3.016-6.08 3.457-9.494.869-6.72 1.737-6.66 2.041-7.437 2.986-7.924 3.473-12.45 3.885-12.923.396-.472.456.244.685 1.265.228 1.037-.091 8.123.32 10.866.228 1.493.746 4.83.914 6.766.167 1.935 1.035 10.85 1.035 10.85s1.082 1.493 1.645.076c.046-.137 1.082-8.366 1.112-10.652.03-2.286-.974-2.621-.167-7.056 1.736-9.509 1.508-11.155-.533-17.997-4.996-16.763-9.855-1.127-9.855-1.127z"/></g><g><path fill="url(#kub3v)" d="M221.584 270.997s3.016 6.263.99 18.972c0 0-6.168-.58-15.414-1.234 0 0 4.204-17.098 4.326-18.18.122-1.098 10.098.442 10.098.442z"/></g><g><path fill="#0f3a5e" d="M219.478 308.296s-.655.93-.594 1.067c.076.137 1.447.366 1.675.03.229-.335.564-1.036.564-1.036s-1.264.64-1.645-.06z"/></g><g><path fill="#131c24" d="M206.468 311.722c-.7.213-.898 1.387-1.493 1.737-.594.35-3.472.595-3.579-.32-.107-.899 1.219-1.722 1.797-2.164.594-.457 1.92-1.935 2.194-2.53 0 0 .243.382.944.26.7-.122.823-.305.823-.305-.03.701.213 1.204.289 1.463.244.96-.274 1.646-.975 1.86z"/></g><g><path fill="#fff" d="M200.345 259.749s-.67-.61-.518-1.113c.137-.426 0-1.067-.045-1.265-.061-.259.076-1.143-.26-1.066-.334.06-.289 1.432-.334 1.722-.046.29-.9-.701-1.204-.762-.304-.061-1.858 1.447-1.188 2.057.67.61 1.782.823 1.874.96.091.137.472.457.472.457z"/></g><g><path fill="#fff" d="M198.182 257.372s-2.148-1.737-2.391-1.722c-.244 0-.32.122-.138.29.198.167 2.026 1.737 2.026 1.737s-2.894-1.63-3.092-1.661c-.122-.03-.304.198-.198.305.092.106 2.879 1.874 2.879 1.874s-2.711-1.509-2.879-1.493c-.152.015-.274.259-.076.396.198.122 2.62 1.676 2.62 1.676s-2.041-.975-2.178-.869c-.092.061-.26.244.274.488.533.229 1.736.93 1.736.93z"/></g><g><path fill="#fff" d="M233.25 251.519s.67-.61.518-1.113c-.137-.426 0-1.067.046-1.265.06-.259-.077-1.143.259-1.066.335.06.289 1.432.335 1.722.045.29.898-.701 1.203-.762.305-.061 1.858 1.447 1.188 2.057-.67.61-1.782.823-1.874.96-.09.137-.472.457-.472.457z"/></g><g><path fill="#fff" d="M235.41 249.137s2.148-1.737 2.391-1.737c.244 0 .32.122.137.305-.198.167-2.025 1.737-2.025 1.737s2.894-1.63 3.092-1.661c.122-.03.304.198.198.305-.092.106-2.88 1.874-2.88 1.874s2.712-1.509 2.88-1.493c.152.015.274.259.076.396-.198.122-2.62 1.676-2.62 1.676s2.041-.975 2.178-.868c.091.06.259.243-.274.487-.533.229-1.736.93-1.736.93z"/></g><g><path fill="#131c24" d="M215.442 240.418s2.255-.244 3.077 1.95c.807 2.18 1.584 2.896 1.676 4.039.38 4.648 2.558 3.596 1.95 6.263-.61 2.682-1.037 3.078-1.037 3.078l-5.178-1.02-5.24.015s2.056-1.021 1.6-3.216c-.458-2.179-1.6-5.76-.96-8.198.64-2.423 2.757-2.728 4.112-2.91z"/></g><g><path fill="url(#kub3w)" d="M234.958 252.568c-.076-.076-4.92 3.17-5.438 3.475-1.035.594-2.162.564-3.335.64-1.31.076-2.803-.061-4.098.198-.67.137-.746.305-1.096 1.02-.945 1.936-1.25 4.344-1.386 6.477-.137 2.225.716 3.764 1.614 5.73.305.67.686 1.235.366 1.783-.381.655-1.798.838-2.483.93-1.706.228-4.234.03-5.986-.32-2.924-.58-1.66-3.368-1.873-5.151-.153-1.189-.716-2.972-1.051-4.115-.32-1.142-.366-1.615-.305-2.819-.625 1.783-1.036 4.526-2.727 5.654-1.31.884-2.604.015-3.548-.808-1.783-1.554-3.58-3.108-5.362-4.663l1.142-1.051c.122-.122.137-.153.275-.26.335-.274.289-.365.64-.137.228.153.852.732 1.05.915.64.61 1.219.96 1.858 1.57.564.518 2.072 1.356 2.285 1.173.564-.488.945-1.54 1.173-2.134.64-1.676 1.28-3.367 2.026-4.983.807-1.737 2.604-2.667 4.34-3.352 1.509-.595 3.52-.473 5.043-.092 1.066.275 1.447.29 2.513.58 1.02.289 1.965.64 3 .853 1.204.243 2.437.335 3.656.35.96.015 1.37-.152 2.178-.716 1.097-.762 3.062-2.423 4.25-3.063.29-.168 1.066 1.478 1.28 2.316z"/></g><g><path fill="url(#kub3x)" d="M217.062 251.835c-.168-.93-.061-2.347-.061-2.347s-3.153-.67-3.016.457c.091.731-.076 1.6-.213 2.088a7.61 7.61 0 0 0-.533.213c-.518 2.515 1.401 4.221 1.401 4.221 1.934-.731 3.442-4.236 3.442-4.236a4.419 4.419 0 0 0-1.02-.396z"/></g><g><path fill="url(#kub3y)" d="M215.745 241.684s3 .426 2.558 4.86c-.441 4.42-3.076 4.07-3.26 4.07-.182 0-2.65.091-2.863-5.303 0 0-.106-3.993 3.565-3.627z"/></g><g><path fill="#131c24" d="M215.393 243.298s1.401 1.478 2.04 2.21c.656.746.732 2.178.732 2.178s1.097-1.34.64-2.895c-.457-1.554-1.539-4.587-4.28-3.657-2.742.93-2.849 5.028-2.529 7.055 0 .016 1.234-4.48 3.397-4.891z"/></g></g><g><g><path fill="#32658f" d="M190.896 325.26c.121-.03.393 3.01.076 3.388-.317.363-1.933.288-2.37.046-.439-.242.558-3.177.558-3.177s.906-.015 1.736-.257z"/></g><g><path fill="#32658f" d="M175.22 326.4s-.061 2.51-.469 2.692c-.407.182-2.204-.12-3.17-.65-.967-.53-2.009-1.452-1.42-1.755.59-.302 2.31-.015 3.11-.196"/></g><g><path d="M168.808 262.908s-.62-.923-.484-1.331c.121-.409-.241-2.057-.588-2.3-.56-.408-.227.515-.287.742-.06.212-2.839-4.855-2.582-2.95.03.197 1.132 1.86 1.072 2.073 0 0-.906.816-.68 1.815.182.831.816 1.315 1.223 1.86.348.454.59 1.028.59 1.028z"/></g><g><path d="M180.235 285.533s-1.328 7.517-1.676 9.392c-.362 1.876-1.358 10.98-1.464 12.539-.106 1.542-1.63 7.38-1.555 7.94.075.56-2.25 11.661-2.25 11.661s.8.65 1.63.061c.423-.303 3.957-9.529 4.62-12.206.665-2.616 2.537-8.908 2.885-9.755 3.291-7.94 3.306-11.238 3.744-11.752.438-.514.468.317.71 1.467.257 1.15.785 11.026 1.102 12.281.317 1.256.076 5.49.257 7.638.181 2.133.966 11.813.966 11.813s.604.983 1.465.03c.18-.212 1.48-10.769 1.51-13.325.03-2.54.075-6.05.135-7.154.665-10.542 2.295-12.04-.271-19.511-4.802-13.99-11.808-1.12-11.808-1.12z"/></g><g><path fill="url(#kub3z)" d="M190.92 283.49s3.594 6.096 2.703 16.442c0 0-10.055 1.134-16.563.62 0 0 2.16-11.767 3.231-15.428.664-2.223 10.63-1.633 10.63-1.633z"/></g><g><path fill="#6ea2e8" d="M189.91 260.774l-.03-.015"/></g><g><path fill="url(#kub3A)" d="M189.912 260.77c.12.181.015 1.951-.076 1.996-.15.091 1.6 1.09 3.065 1.755-.573-.045-1.132-.09-1.615-.121-.347-.015-.65-.03-.846-.03-2.234 0-3.684-.363-3.684-.363s-3.261.075-3.472.15c-2.19.924-2.643.924-3.292 1.166-.257.09-1.012.438-1.902.831-.876.348-1.737.696-2.265.878-1.299.484-3.382 1.285-3.382 1.285l-3.503-5.687-2.25 1.225s3.08 8.622 5.164 8.864c1.404.166 4.877-1.074 6.945-1.891.151-.045.227-.06.227-.06-.076 1.255-.272 3.055.92 4.643.982 1.33.454 9.483.288 10.103l11.248-.907c-.317-.787-1.932-3.585-2.144-5.203-.241-1.86.287-3.69.725-5.218.664-2.33 1.857-5.037 1.857-5.037s8.818-1.74 8.667-3.857c-.166-2.087-10.026-4.325-10.675-4.522z"/></g><g><path d="M189.867 253.298c.045.076 1.072 1.09.83 3.615-.226 2.526.03 10.451.03 10.451s-.679.923-4.604.983c-3.911.06-5.753-.423-5.753-.423s1.012-4.205 1.132-7.154c.121-2.934.484-7.109 1.842-8.334 1.374-1.225 5.164-1.709 6.523.862z"/></g></g></g><g opacity=".49"><path fill="#fff" d="M139.201 103.217c0 4.238-3.695 7.686-8.235 7.686-4.54 0-8.236-3.448-8.236-7.686 0-4.238 3.695-7.687 8.236-7.687 4.54.023 8.235 3.449 8.235 7.687z"/><path fill="none" stroke="#fff" stroke-miterlimit="50" stroke-opacity=".76" stroke-width="6" d="M139.201 103.217c0 4.238-3.695 7.686-8.235 7.686-4.54 0-8.236-3.448-8.236-7.686 0-4.238 3.695-7.687 8.236-7.687 4.54.023 8.235 3.449 8.235 7.687z" clip-path="url(&quot;#kub3B&quot;)"/></g></g></svg>