<svg xmlns="http://www.w3.org/2000/svg" width="20" height="21" viewBox="0 0 20 21"><g><g><path fill="#1a1a1a" d="M12.3 10.447a3.083 3.083 0 0 0-.577 1.794v6.267l-3.436 1.341v-7.608a3.082 3.082 0 0 0-.578-1.794L1.205 1.066h17.6zM19.139 0H.861a.856.856 0 0 0-.765.478.91.91 0 0 0 .068.928l6.696 9.662.007.01c.243.337.374.744.375 1.163v7.878a.887.887 0 0 0 .249.623.845.845 0 0 0 .944.189l3.762-1.47c.337-.105.561-.431.561-.824v-6.396c0-.419.132-.826.376-1.163l.006-.01 6.696-9.663a.91.91 0 0 0 .068-.927.856.856 0 0 0-.766-.478z"/></g></g></svg>