<svg xmlns="http://www.w3.org/2000/svg" width="23" height="23" viewBox="0 0 23 23"><g><g><path fill="#086afe" d="M18.77 14.618a4.212 4.212 0 0 0-3.3 1.606l-7.179-3.64a4.13 4.13 0 0 0 .161-1.085c0-.41-.08-.798-.192-1.175L15.407 6.7a4.211 4.211 0 0 0 3.365 1.679C21.109 8.38 23 6.505 23 4.19 23 1.875 21.11 0 18.772 0c-2.333 0-4.226 1.876-4.226 4.19 0 .378.068.738.163 1.087l-7.177 3.64a4.22 4.22 0 0 0-3.307-1.609C1.89 7.308 0 9.185 0 11.499c0 2.315 1.89 4.19 4.225 4.19a4.22 4.22 0 0 0 3.37-1.681l7.143 3.623a4.108 4.108 0 0 0-.194 1.179c0 2.314 1.893 4.19 4.226 4.19 2.337 0 4.228-1.876 4.228-4.19.001-2.317-1.89-4.192-4.227-4.192z"/></g></g></svg>