<svg xmlns="http://www.w3.org/2000/svg" width="21" height="17" viewBox="0 0 21 17"><g><g><path fill="#1773fe" d="M21 2.013a9.001 9.001 0 0 1-2.48.677A4.268 4.268 0 0 0 20.412.32a8.623 8.623 0 0 1-2.73 1.037A4.322 4.322 0 0 0 14.54 0a4.296 4.296 0 0 0-4.303 4.29c0 .34.03.667.1.979A12.2 12.2 0 0 1 1.462.782a4.306 4.306 0 0 0-.59 2.168c0 1.486.769 2.803 1.913 3.565A4.264 4.264 0 0 1 .84 5.987v.047c0 2.084 1.492 3.816 3.45 4.214-.351.096-.733.142-1.13.142a3.82 3.82 0 0 1-.815-.074 4.344 4.344 0 0 0 4.023 2.988 8.67 8.67 0 0 1-5.338 1.83c-.353 0-.691-.016-1.03-.059A12.153 12.153 0 0 0 6.604 17c7.923 0 12.254-6.538 12.254-12.206 0-.19-.007-.373-.016-.554A8.571 8.571 0 0 0 21 2.013z"/></g></g></svg>